<svg width="32" height="22" viewBox="0 0 32 22" fill="none" xmlns="http://www.w3.org/2000/svg">
<path d="M10.9462 2.28259C10.0926 -0.76086 5.41236 -0.760864 4.55884 2.28258L0.107065 18.1566C-0.433848 20.0854 1.14302 21.9665 3.30072 21.9665H12.2043C14.362 21.9665 15.9388 20.0854 15.3979 18.1566L10.9462 2.28259Z" fill="#03091B"/>
<path d="M27.4412 19.7174C26.5876 22.7609 21.9074 22.7609 21.0538 19.7174L16.6021 3.84342C16.0612 1.91465 17.638 0.0335071 19.7957 0.0335071H28.6993C30.857 0.0335071 32.4338 1.91465 31.8929 3.84342L27.4412 19.7174Z" fill="#03091B"/>
<path d="M7.25765 0.0335071H25.0723V21.9665H7.25765V0.0335071Z" fill="#03091B"/>
<path d="M15.4131 10.2114L16.3582 10.1142C17.5102 10.1709 18.2882 10.6161 18.6924 11.4501C18.8193 11.7554 18.8682 12.0767 18.8393 12.414C18.6962 13.6544 17.9038 14.5398 16.462 15.0701C15.8199 15.3272 14.7373 15.5579 13.2142 15.7623L12.4581 15.8401L12.4254 15.9867C12.39 16.261 12.3533 16.6786 12.3155 17.2397C12.3044 17.7502 12.3505 18.1991 12.4541 18.5865C12.5955 19.0335 12.8305 19.3835 13.159 19.6362C13.5553 19.9297 14.0598 20.037 14.6725 19.9581C15.9245 19.7497 16.9505 19.2781 17.7505 18.5432C18.0303 18.3233 18.2588 18.069 18.4361 17.7802C18.5883 17.5576 18.7236 17.48 18.8419 17.5474C18.8924 17.5741 18.9872 17.6439 19.1261 17.757C19.371 17.9706 19.4887 18.1097 19.4795 18.1743C19.4718 18.2547 19.3196 18.4773 19.0228 18.8421C18.1277 19.8893 16.9101 20.5876 15.3701 20.937C14.8443 21.0866 14.3733 21.1509 13.9573 21.13C12.4604 21.1248 11.3517 20.4827 10.6312 19.2037C10.4966 18.9788 10.3841 18.7357 10.2935 18.4744C10.1428 18.0919 10.0366 17.6014 9.97503 17.0028C9.8952 16.0719 10.0125 15.2002 10.3269 14.3879C10.5505 13.7759 10.8813 13.2006 11.3194 12.6621C11.533 12.4173 11.7993 12.1431 12.1183 11.8397C13.0063 11.0321 14.003 10.5077 15.1084 10.2667C15.1855 10.2428 15.2871 10.2244 15.4131 10.2114ZM16.1653 11.2563C15.5711 11.206 14.9681 11.3795 14.3563 11.7767C13.4707 12.2976 12.9091 13.1831 12.6716 14.4332C12.653 14.5625 12.6367 14.6358 12.6226 14.6532C12.6258 14.6847 12.8873 14.6737 13.4071 14.6202C14.4294 14.4992 15.194 14.3489 15.7008 14.1694C16.7492 13.8387 17.3323 13.3171 17.4501 12.6046C17.4872 12.3461 17.4566 12.1264 17.3584 11.9455C17.1745 11.5505 16.7768 11.3208 16.1653 11.2563Z" fill="#01B7C6"/>
<path d="M5.38922 2.57154C5.41649 2.55791 6.78688 2.55109 9.50037 2.55109C12.2957 2.56473 13.7888 2.592 13.9797 2.6329C13.9933 2.6329 14.0683 2.65336 14.2047 2.69426C14.7637 2.81699 15.241 3.02152 15.6364 3.30787C16.9182 4.16692 17.6204 5.4623 17.7431 7.19403C17.7704 7.42584 17.7772 7.66446 17.7636 7.9099C17.6954 9.90071 16.9659 11.7279 15.5751 13.3914C15.2478 13.8005 14.8524 14.2028 14.3888 14.5982C13.107 15.6345 11.7503 16.2617 10.3185 16.4799C10.1822 16.4936 8.77087 16.5072 6.08464 16.5208C3.38478 16.5208 2.00076 16.4799 1.93258 16.3981C1.90531 16.3572 1.91895 16.2004 1.97349 15.9277C2.04167 15.6277 2.10984 15.4572 2.17802 15.4163C2.2462 15.3891 2.49164 15.3754 2.91435 15.3754C3.67795 15.3618 4.10747 15.3072 4.20292 15.2118C4.24383 15.1845 4.73471 13.2892 5.67557 9.52573C6.61643 5.76229 7.08686 3.86693 7.08686 3.83966C7.08686 3.82602 7.07323 3.80557 7.04595 3.7783C6.99141 3.75103 6.62325 3.72376 5.94147 3.69649H5.24605L5.16423 3.61467C5.10969 3.56013 5.11651 3.38287 5.18469 3.08288C5.2665 2.76926 5.33468 2.59882 5.38922 2.57154ZM12.5684 3.71694H9.54128C9.40492 3.73058 9.31629 3.77148 9.27539 3.83966L6.4119 15.2936C6.4119 15.3209 6.43917 15.3413 6.49371 15.355L9.80718 15.3345C9.83445 15.3345 9.8549 15.3345 9.86854 15.3345C10.7958 15.2118 11.6003 14.9186 12.282 14.455C12.5548 14.2778 12.8275 14.0528 13.1002 13.7801C13.8638 13.0165 14.4638 11.8574 14.9001 10.303C15.1728 9.32119 15.3569 8.48942 15.4523 7.80764C15.5342 7.16676 15.5342 6.62133 15.4523 6.17136C15.3296 5.54412 15.0774 5.02596 14.6956 4.61689C14.1501 4.09874 13.4411 3.79875 12.5684 3.71694Z" fill="#D8D3AF"/>
<path d="M23.1188 2.48841C23.4432 2.46246 23.8649 2.46895 24.3839 2.50787C25.4998 2.66358 26.4211 3.11774 27.1478 3.87034C27.8615 4.58401 28.3091 5.49881 28.4908 6.61474C28.7762 8.3016 28.4454 10.0144 27.4981 11.7532C27.3165 12.0776 27.1153 12.3955 26.8947 12.7069C26.5574 13.187 26.1616 13.6541 25.7075 14.1083C24.9289 14.8609 24.092 15.4448 23.1966 15.86C23.002 15.9638 22.9047 16.0222 22.9047 16.0352C22.9047 16.0612 22.9176 16.139 22.9436 16.2688C23.1123 16.9695 23.3977 17.3912 23.8 17.5339C24.0206 17.6118 24.2931 17.6248 24.6175 17.5729C25.3831 17.4301 25.928 17.0798 26.2524 16.5218C26.3043 16.431 26.3433 16.3401 26.3692 16.2493C26.4211 16.0677 26.499 15.9768 26.6028 15.9768C26.7196 15.9768 26.7909 16.0352 26.8169 16.152C26.8169 16.2299 26.7715 16.418 26.6806 16.7164C26.4601 17.3652 26.22 17.8973 25.9605 18.3125C25.5582 18.9872 25.0781 19.4673 24.5202 19.7528C23.8843 20.0383 23.3199 20.0577 22.8268 19.8112C22.5543 19.6814 22.3467 19.4803 22.204 19.2078C22.0483 18.9223 21.9639 18.4877 21.9509 17.9037C21.9509 17.1382 21.9704 16.6386 22.0093 16.405V16.3272L21.7174 16.405C19.8878 16.8722 18.3242 16.6126 17.0266 15.6265C16.8968 15.5227 16.7671 15.4124 16.6373 15.2956C15.8588 14.53 15.3722 13.5244 15.1775 12.2787C15.1256 11.8635 15.1191 11.338 15.1581 10.7021C15.171 10.6502 15.1775 10.6048 15.1775 10.5659C15.4111 8.78819 16.1637 7.15324 17.4353 5.66101C17.7987 5.24578 18.1879 4.85651 18.6032 4.49318C20.0435 3.2994 21.5487 2.63115 23.1188 2.48841ZM24.0141 3.50053C23.6248 3.42267 23.3199 3.4097 23.0993 3.4616C23.0085 3.4616 22.9371 3.46809 22.8852 3.48106C22.0937 3.58487 21.3021 3.9482 20.5106 4.57104C20.0305 4.97329 19.5958 5.44691 19.2065 5.99189C18.415 7.14675 17.8571 8.5676 17.5327 10.2545C17.3899 11.02 17.325 11.6753 17.338 12.2203C17.351 12.7134 17.4224 13.1675 17.5521 13.5828C17.7597 14.2056 18.0906 14.6922 18.5448 15.0426L18.681 15.1593L18.7199 14.9842C18.7978 14.3873 19.1222 13.8877 19.6931 13.4855C20.1213 13.187 20.5625 13.0508 21.0167 13.0767C21.6914 13.1156 22.1715 13.479 22.457 14.1667C22.5868 14.517 22.6581 14.7376 22.6711 14.8285C22.6711 14.8804 22.6776 14.9063 22.6906 14.9063L22.8852 14.7701C24.4553 13.6671 25.5323 11.8116 26.1162 9.20342C26.2849 8.5157 26.3757 7.86042 26.3887 7.23758C26.3887 6.7445 26.3562 6.32927 26.2914 5.99189C26.0319 4.73324 25.3831 3.93522 24.345 3.59785C24.2412 3.55892 24.1309 3.52648 24.0141 3.50053ZM21.114 14.011C20.7766 13.9591 20.4652 14.0175 20.1797 14.1862C19.9591 14.3419 19.8164 14.4976 19.7515 14.6533C19.5569 15.0296 19.5893 15.328 19.8488 15.5486C19.8748 15.5746 19.9072 15.594 19.9462 15.607C20.0889 15.6719 20.3354 15.6784 20.6858 15.6265C21.114 15.5746 21.5162 15.4708 21.8925 15.3151L21.9899 15.2761V15.1399C21.938 14.8674 21.8796 14.6598 21.8147 14.517C21.672 14.2316 21.4384 14.0629 21.114 14.011Z" fill="#D8D3AF"/>
<path d="M5.38922 2.57154C5.41649 2.55791 6.78688 2.55109 9.50037 2.55109C12.2957 2.56473 13.7888 2.592 13.9797 2.6329C13.9933 2.6329 14.0683 2.65336 14.2047 2.69426C14.7637 2.81699 15.241 3.02152 15.6364 3.30787C16.9182 4.16692 17.6204 5.4623 17.7431 7.19403C17.7704 7.42584 17.7772 7.66446 17.7636 7.9099C17.6954 9.90071 16.9659 11.7279 15.5751 13.3914C15.2478 13.8005 14.8524 14.2028 14.3888 14.5982C13.107 15.6345 11.7503 16.2617 10.3185 16.4799C10.1822 16.4936 8.77087 16.5072 6.08464 16.5208C3.38478 16.5208 2.00076 16.4799 1.93258 16.3981C1.90531 16.3572 1.91895 16.2004 1.97349 15.9277C2.04167 15.6277 2.10984 15.4572 2.17802 15.4163C2.2462 15.3891 2.49164 15.3754 2.91435 15.3754C3.67795 15.3618 4.10747 15.3072 4.20292 15.2118C4.24383 15.1845 4.73471 13.2892 5.67557 9.52573C6.61643 5.76229 7.08686 3.86693 7.08686 3.83966C7.08686 3.82602 7.07323 3.80557 7.04595 3.7783C6.99141 3.75103 6.62325 3.72376 5.94147 3.69649H5.24605L5.16423 3.61467C5.10969 3.56013 5.11651 3.38287 5.18469 3.08288C5.2665 2.76926 5.33468 2.59882 5.38922 2.57154ZM12.5684 3.71694H9.54128C9.40492 3.73058 9.31629 3.77148 9.27539 3.83966L6.4119 15.2936C6.4119 15.3209 6.43917 15.3413 6.49371 15.355L9.80718 15.3345C9.83445 15.3345 9.8549 15.3345 9.86854 15.3345C10.7958 15.2118 11.6003 14.9186 12.282 14.455C12.5548 14.2778 12.8275 14.0528 13.1002 13.7801C13.8638 13.0165 14.4638 11.8574 14.9001 10.303C15.1728 9.32119 15.3569 8.48942 15.4523 7.80764C15.5342 7.16676 15.5342 6.62133 15.4523 6.17136C15.3296 5.54412 15.0774 5.02596 14.6956 4.61689C14.1501 4.09874 13.4411 3.79875 12.5684 3.71694Z" fill="#D8D3AF"/>
<path d="M17.6978 10.4329C18.1405 10.6565 18.472 10.9954 18.6924 11.4501C18.8193 11.7554 18.8682 12.0767 18.8393 12.414C18.6962 13.6544 17.9038 14.5398 16.462 15.0701C15.8199 15.3272 14.7376 15.5581 13.2146 15.7625L12.4585 15.8401L12.4259 15.9867C12.3905 16.2609 12.3533 16.6787 12.3155 17.2397C12.3044 17.7502 12.3505 18.1991 12.4541 18.5865C12.5955 19.0335 12.8305 19.3835 13.159 19.6362C13.5553 19.9297 14.0598 20.037 14.6725 19.9581C15.9245 19.7497 16.951 19.278 17.751 18.543C18.0307 18.3233 18.2593 18.0689 18.4365 17.7802C18.5887 17.5576 18.7236 17.4801 18.8419 17.5474C18.8924 17.5741 18.9876 17.6439 19.1266 17.757C19.3712 17.9704 19.4886 18.1096 19.4795 18.1743C19.4718 18.2547 19.3199 18.4772 19.0232 18.842C18.128 19.8892 16.9105 20.5876 15.3705 20.937C14.8447 21.0866 14.3738 21.1509 13.9578 21.13C12.4609 21.1248 11.3517 20.4827 10.6312 19.2037C10.4966 18.9788 10.3841 18.7357 10.2935 18.4744C10.1428 18.0919 10.0366 17.6014 9.97503 17.0028C9.89521 16.0719 10.013 15.2001 10.3274 14.3878C10.5085 13.892 10.76 13.4204 11.0819 12.9728L13.3963 12.6481C13.0492 13.1242 12.8077 13.7192 12.6721 14.4332C12.6535 14.5625 12.6367 14.6358 12.6226 14.6532C12.6261 14.6846 12.888 14.6738 13.4076 14.6204C14.4297 14.4993 15.194 14.3489 15.7008 14.1694C16.7492 13.8387 17.3323 13.3171 17.4501 12.6046C17.4694 12.4699 17.47 12.3458 17.4526 12.2322H17.7867C17.7172 11.9184 17.6772 11.5845 17.6678 11.2306C17.662 10.9868 17.6725 10.7209 17.6978 10.4329Z" fill="#01B7C6"/>
</svg>
